
Complete name                    : Super Beavers Vol.10 (1960's)
Format                           : Windows Media
File size                        : 1.07 GiB
Duration                         : 2h 0mn
Overall bit rate mode            : Constant
Overall bit rate                 : 1275 Kbps
Maximum Overall bit rate         : 1310 Kbps
Encoded date                     : UTC 2009-09-18 17:09:35.497

Video
ID                               : 2
Format                           : VC-1
Format profile                   : MP@ML
Codec ID                         : WMV3
Codec ID/Info                    : Windows Media Video 9
Codec ID/Hint                    : WMV3
Description of the codec         : Windows Media Video 9 - Professional
Duration                         : 2h 0mn
Bit rate mode                    : Constant
Bit rate                         : 1200 Kbps
Width                            : 640 pixels
Height                           : 480 pixels
Display aspect ratio             : 4:3
Frame rate                       : 29.970 fps
Resolution                       : 24 bits
Scan type                        : Progressive
Bits/(Pixel*Frame)               : 0.130
Stream size                      : 1.01 GiB (94%)
Language                         : English (US)

Audio
ID                               : 1
Format                           : WMA
Format version                   : Version 2
Codec ID                         : 161
Codec ID/Info                    : Windows Media Audio
Description of the codec         : Windows Media Audio 9.2 -  96 kbps, 44 kHz, stereo (A/V) 1-pass CBR
Duration                         : 2h 0mn
Bit rate mode                    : Constant
Bit rate                         : 96.0 Kbps
Channel(s)                       : 2 channels
Sampling rate                    : 44.1 KHz
Resolution                       : 16 bits
Stream size                      : 82.9 MiB (8%)
Language                         : English (US)

